<?xml version="1.0" standalone="no"?>
<!DOCTYPE svg PUBLIC "-//W3C//DTD SVG 20010904//EN"
 "http://www.w3.org/TR/2001/REC-SVG-20010904/DTD/svg10.dtd">
<svg version="1.0" xmlns="http://www.w3.org/2000/svg"
 width="512.000000pt" height="512.000000pt" viewBox="0 0 512.000000 512.000000"
 preserveAspectRatio="xMidYMid meet">

<g transform="translate(0.000000,512.000000) scale(0.100000,-0.100000)"
fill="#000000" stroke="none">
<path d="M1675 4829 c-279 -14 -435 -42 -611 -110 -350 -136 -609 -429 -710
-803 -59 -223 -74 -493 -74 -1356 0 -632 11 -1002 35 -1165 91 -616 495 -1009
1117 -1085 176 -21 415 -27 1128 -27 713 0 952 6 1128 27 622 76 1026 469
1117 1085 24 163 35 533 35 1165 0 863 -15 1133 -74 1356 -99 369 -353 660
-700 799 -169 69 -342 100 -631 114 -206 11 -1551 10 -1760 0z m1880 -413
c224 -30 312 -53 440 -119 61 -31 102 -63 170 -132 102 -101 153 -188 199
-333 55 -174 58 -236 63 -1120 7 -1197 -5 -1348 -133 -1594 -55 -105 -192
-240 -299 -295 -149 -76 -286 -108 -510 -121 -132 -7 -1632 -10 -1805 -3 -235
9 -405 47 -555 124 -108 55 -244 190 -299 295 -128 246 -140 397 -133 1594 5
884 8 946 63 1120 46 145 97 232 199 333 68 69 109 101 170 132 151 77 333
118 549 122 50 1 93 4 96 7 7 8 1725 -2 1785 -10z"/>
<path d="M3683 4034 c-61 -22 -126 -84 -153 -145 -18 -42 -21 -66 -18 -123 8
-154 100 -246 254 -254 91 -5 158 22 214 85 120 137 81 341 -81 422 -71 35
-144 40 -216 15z"/>
<path d="M2395 3719 c-574 -84 -1005 -580 -1005 -1159 0 -461 281 -891 701
-1071 447 -193 952 -98 1295 245 222 222 344 515 344 826 0 648 -533 1176
-1180 1169 -52 -1 -122 -5 -155 -10z m403 -438 c313 -105 522 -394 522 -721 0
-207 -74 -382 -225 -535 -93 -94 -173 -144 -300 -188 -85 -30 -98 -31 -235
-31 -137 0 -150 1 -235 31 -50 17 -119 48 -155 69 -79 46 -213 179 -259 257
-270 457 -25 1023 494 1143 39 9 101 13 180 10 103 -3 134 -8 213 -35z"/>
</g>
</svg>
