<?xml version="1.0" standalone="no"?>
<!DOCTYPE svg PUBLIC "-//W3C//DTD SVG 20010904//EN"
 "http://www.w3.org/TR/2001/REC-SVG-20010904/DTD/svg10.dtd">
<svg version="1.0" xmlns="http://www.w3.org/2000/svg"
 width="512.000000pt" height="512.000000pt" viewBox="0 0 512.000000 512.000000"
 preserveAspectRatio="xMidYMid meet">

<g transform="translate(0.000000,512.000000) scale(0.100000,-0.100000)"
fill="#000000" stroke="none">
<path d="M1020 4560 c-8 -5 -27 -10 -42 -10 -33 0 -139 -45 -194 -81 -100 -68
-189 -200 -219 -325 -61 -253 90 -519 347 -615 170 -64 393 -16 531 115 183
172 223 430 101 651 -39 70 -148 176 -214 207 -110 53 -271 83 -310 58z"/>
<path d="M3355 3325 c-177 -34 -328 -105 -457 -216 -31 -27 -59 -49 -62 -49
-3 0 -6 38 -6 85 0 78 -2 88 -25 111 l-25 25 -411 -3 c-393 -3 -411 -4 -425
-22 -12 -17 -14 -216 -14 -1341 l0 -1322 23 -21 c23 -22 26 -22 444 -22 414 0
420 0 439 21 18 20 19 52 25 788 4 551 9 777 18 806 6 22 19 64 27 93 47 157
176 242 367 242 192 0 284 -73 334 -266 15 -62 18 -147 23 -855 l5 -787 25
-21 c24 -20 35 -20 441 -21 l416 0 27 26 26 27 0 761 c0 865 -7 1020 -57 1251
-21 99 -30 126 -88 250 -122 264 -347 415 -692 465 -96 14 -292 11 -378 -5z"/>
<path d="M647 3260 l-27 -21 0 -1323 0 -1323 23 -21 c23 -22 26 -22 443 -22
l421 0 21 23 22 23 0 1320 c0 1124 -2 1323 -14 1340 -14 18 -32 19 -438 22
-418 3 -425 2 -451 -18z"/>
</g>
</svg>
