<?xml version="1.0" standalone="no"?>
<!DOCTYPE svg PUBLIC "-//W3C//DTD SVG 20010904//EN"
 "http://www.w3.org/TR/2001/REC-SVG-20010904/DTD/svg10.dtd">
<svg version="1.0" xmlns="http://www.w3.org/2000/svg"
 width="200.000000pt" height="200.000000pt" viewBox="0 0 200.000000 200.000000"
 preserveAspectRatio="xMidYMid meet">

<g transform="translate(0.000000,200.000000) scale(0.100000,-0.100000)"
fill="#000000" stroke="none">
<path d="M898 1729 c-129 -17 -273 -83 -385 -178 -87 -72 -175 -205 -209 -313
l-17 -57 -109 -3 -108 -3 154 -215 c85 -118 157 -215 161 -215 3 0 75 97 160
215 l156 215 -111 3 c-60 1 -110 5 -110 8 0 24 76 141 128 195 168 179 430
220 652 103 36 -19 84 -52 108 -74 24 -22 46 -40 50 -39 4 0 30 32 59 72 l52
72 -37 33 c-162 143 -382 210 -594 181z"/>
<path d="M1458 1042 l-156 -217 109 -3 c60 -1 109 -5 109 -8 0 -15 -58 -117
-93 -163 -52 -68 -159 -143 -245 -173 -97 -34 -269 -33 -362 1 -73 27 -148 72
-199 119 -18 18 -34 32 -36 32 -11 0 -106 -143 -102 -154 9 -22 126 -105 201
-141 110 -52 185 -68 316 -69 89 0 133 5 193 22 234 66 408 226 497 455 l28
72 107 5 107 5 -147 205 c-81 113 -153 211 -159 217 -9 10 -47 -36 -168 -205z"/>
</g>
</svg>
