<?xml version="1.0" standalone="no"?>
<!DOCTYPE svg PUBLIC "-//W3C//DTD SVG 20010904//EN"
 "http://www.w3.org/TR/2001/REC-SVG-20010904/DTD/svg10.dtd">
<svg version="1.0" xmlns="http://www.w3.org/2000/svg"
 width="200.000000pt" height="200.000000pt" viewBox="0 0 200.000000 200.000000"
 preserveAspectRatio="xMidYMid meet">

<g transform="translate(0.000000,200.000000) scale(0.100000,-0.100000)"
fill="#000000" stroke="none">
<path d="M808 1849 c-17 -9 -18 -35 -18 -314 l0 -305 510 0 510 0 0 299 c0
299 0 300 -22 315 -20 14 -83 16 -493 16 -300 0 -476 -4 -487 -11z m537 -139
c0 -13 -31 -15 -204 -18 -118 -1 -209 2 -214 7 -27 27 9 31 211 29 176 -3 207
-5 207 -18z m341 9 c12 -20 -20 -29 -113 -29 -87 0 -112 8 -98 30 9 14 202 13
211 -1z m-338 -151 c3 -17 -12 -18 -212 -18 -173 0 -216 3 -216 13 0 8 3 17 7
21 4 3 99 5 212 4 187 -3 206 -5 209 -20z m331 9 c18 -23 2 -27 -106 -27 -79
0 -103 3 -103 13 0 24 12 27 105 27 65 0 96 -4 104 -13z m-329 -152 c0 -13
-31 -15 -215 -15 -184 0 -215 2 -215 15 0 13 31 15 215 15 184 0 215 -2 215
-15z m335 0 c0 -6 -44 -11 -107 -13 -93 -2 -108 0 -108 13 0 13 15 15 108 13
63 -2 107 -7 107 -13z"/>
<path d="M453 1400 c-17 -10 -37 -28 -42 -39 -7 -12 -11 -106 -11 -250 l0
-231 63 0 c35 0 68 -5 75 -12 6 -6 13 -10 16 -7 2 2 22 64 44 138 42 138 63
172 125 209 27 16 27 18 27 114 l0 98 -132 0 c-114 0 -138 -3 -165 -20z"/>
<path d="M742 1179 c-24 -12 -50 -32 -58 -45 -9 -12 -38 -96 -65 -185 -52
-170 -52 -178 -3 -179 11 0 29 7 40 15 38 29 75 15 119 -46 l24 -32 -22 -37
c-28 -49 -17 -90 28 -103 55 -17 60 -22 63 -72 5 -70 -4 -95 -31 -95 -13 0
-32 -7 -43 -15 -17 -13 29 -14 413 -12 418 2 432 3 459 23 15 11 36 31 46 45
10 13 64 172 119 354 108 353 110 366 59 392 -19 10 -152 13 -565 13 -532 0
-541 0 -583 -21z"/>
<path d="M427 843 c-4 -3 -7 -15 -7 -25 0 -11 -13 -33 -29 -49 -34 -34 -92
-40 -130 -13 -22 16 -24 15 -53 -13 -29 -30 -30 -31 -14 -61 33 -65 7 -133
-57 -150 -30 -8 -32 -12 -35 -55 -3 -45 -2 -47 23 -47 31 0 72 -38 81 -76 6
-25 3 -39 -20 -95 -4 -10 3 -25 20 -42 25 -25 28 -26 55 -12 67 35 142 4 155
-65 6 -28 10 -30 50 -30 33 0 44 4 44 15 0 29 28 71 55 83 36 17 72 15 106 -5
29 -17 30 -17 56 10 27 26 27 27 10 62 -9 20 -17 46 -17 60 0 33 45 83 83 93
29 7 32 13 35 48 3 40 2 41 -38 53 -28 8 -47 22 -60 44 -25 40 -25 64 -1 103
l19 32 -29 30 -29 30 -40 -20 c-34 -17 -44 -18 -75 -8 -37 12 -75 59 -75 93 0
13 -9 17 -38 17 -21 0 -42 -3 -45 -7z m111 -243 c90 -55 95 -163 12 -234 -56
-47 -154 -31 -198 32 -33 46 -36 91 -10 142 38 75 127 102 196 60z"/>
</g>
</svg>
