<?xml version="1.0" standalone="no"?>
<!DOCTYPE svg PUBLIC "-//W3C//DTD SVG 20010904//EN"
 "http://www.w3.org/TR/2001/REC-SVG-20010904/DTD/svg10.dtd">
<svg version="1.0" xmlns="http://www.w3.org/2000/svg"
 width="200.000000pt" height="200.000000pt" viewBox="0 0 200.000000 200.000000"
 preserveAspectRatio="xMidYMid meet">

<g transform="translate(0.000000,200.000000) scale(0.100000,-0.100000)"
fill="#000000" stroke="none">
<path d="M535 1691 c-11 -5 -29 -19 -40 -31 -19 -21 -20 -36 -20 -357 l0 -335
28 -24 28 -24 469 0 469 0 28 24 28 24 3 314 c2 202 -1 326 -7 349 -21 69 -21
69 -523 68 -243 0 -452 -4 -463 -8z m933 -53 c9 -9 12 -97 12 -335 0 -308 -1
-323 -19 -333 -13 -6 -177 -10 -465 -10 -391 0 -446 2 -460 16 -14 13 -16 58
-16 333 0 233 3 320 12 329 17 17 919 17 936 0z"/>
<path d="M719 1398 c-69 -39 -101 -147 -65 -216 22 -41 68 -81 104 -88 l32 -6
0 90 0 90 73 37 c39 21 74 39 76 41 7 6 -33 45 -61 60 -40 21 -117 17 -159 -8z"/>
<path d="M1290 1221 l0 -131 30 0 31 0 -3 128 -3 127 -27 3 -28 3 0 -130z"/>
<path d="M888 1281 l-68 -36 0 -77 c0 -89 10 -97 71 -55 54 36 79 82 79 143 0
29 -3 55 -7 57 -5 3 -38 -12 -75 -32z"/>
<path d="M1203 1253 c-9 -3 -13 -29 -13 -84 l0 -79 30 0 30 0 0 79 c0 67 -3
79 -17 83 -10 3 -24 3 -30 1z"/>
<path d="M1095 1191 c-3 -5 -4 -30 -3 -55 1 -43 3 -46 30 -46 27 0 28 1 28 55
0 52 -1 55 -24 55 -14 0 -27 -4 -31 -9z"/>
<path d="M430 802 c-84 -42 -55 -182 38 -182 41 0 92 46 92 83 0 47 -21 85
-55 101 -40 19 -33 20 -75 -2z"/>
<path d="M962 805 c-58 -26 -71 -108 -23 -156 41 -41 90 -40 125 2 44 52 31
125 -27 152 -41 20 -34 20 -75 2z"/>
<path d="M1502 808 c-65 -17 -81 -124 -25 -168 62 -48 143 -5 143 77 0 67 -54
108 -118 91z"/>
<path d="M355 588 c-52 -18 -115 -90 -115 -131 0 -29 49 -37 230 -37 226 0
252 9 216 78 -19 37 -55 68 -98 87 -43 17 -186 19 -233 3z"/>
<path d="M895 593 c-49 -12 -125 -93 -125 -134 0 -31 46 -39 230 -39 226 0
252 9 216 78 -38 72 -103 102 -218 101 -46 -1 -92 -4 -103 -6z"/>
<path d="M1410 585 c-42 -19 -77 -51 -96 -87 -36 -69 -10 -78 216 -78 188 0
230 8 230 42 0 32 -47 94 -87 114 -52 26 -213 31 -263 9z"/>
</g>
</svg>
