<?xml version="1.0" standalone="no"?>
<!DOCTYPE svg PUBLIC "-//W3C//DTD SVG 20010904//EN"
 "http://www.w3.org/TR/2001/REC-SVG-20010904/DTD/svg10.dtd">
<svg version="1.0" xmlns="http://www.w3.org/2000/svg"
 width="200.000000pt" height="200.000000pt" viewBox="0 0 200.000000 200.000000"
 preserveAspectRatio="xMidYMid meet">

<g transform="translate(0.000000,200.000000) scale(0.100000,-0.100000)"
fill="#000000" stroke="none">
<path d="M360 1721 c-19 -13 -16 -16 98 -76 l97 -52 3 -44 c2 -24 -1 -60 -7
-80 -14 -47 -85 -119 -118 -119 -13 0 -64 21 -112 47 -56 29 -94 44 -105 40
-43 -17 109 -208 197 -248 31 -14 66 -19 135 -19 71 0 101 -4 130 -19 45 -23
142 -108 142 -124 0 -7 -117 -129 -260 -272 -177 -177 -264 -270 -271 -293
-30 -92 57 -179 151 -152 26 7 103 78 301 276 l266 265 79 -84 c94 -100 131
-168 143 -265 16 -125 64 -169 211 -192 84 -13 192 -10 197 5 1 6 -44 34 -102
64 -116 61 -124 72 -106 150 12 56 53 114 97 137 l35 19 102 -53 c56 -29 105
-53 110 -52 13 0 8 30 -13 69 -27 55 -115 147 -169 179 -42 24 -56 27 -146 28
-123 0 -145 10 -265 124 l-85 80 180 177 c157 155 190 183 256 216 88 43 83
38 135 134 l39 73 -33 32 -32 33 -76 -40 c-82 -44 -96 -58 -144 -155 -26 -52
-64 -98 -198 -232 -92 -93 -174 -168 -183 -168 -19 0 -171 156 -217 222 -41
59 -62 118 -62 172 -1 55 -30 118 -70 146 -18 13 -58 29 -89 36 -78 19 -223
27 -241 15z"/>
</g>
</svg>
