<?xml version="1.0" standalone="no"?>
<!DOCTYPE svg PUBLIC "-//W3C//DTD SVG 20010904//EN"
 "http://www.w3.org/TR/2001/REC-SVG-20010904/DTD/svg10.dtd">
<svg version="1.0" xmlns="http://www.w3.org/2000/svg"
 width="200.000000pt" height="200.000000pt" viewBox="0 0 200.000000 200.000000"
 preserveAspectRatio="xMidYMid meet">

<g transform="translate(0.000000,200.000000) scale(0.100000,-0.100000)"
fill="#000000" stroke="none">
<path d="M310 1627 l-25 -13 -3 -438 c-1 -316 1 -443 9 -452 8 -10 37 -14 100
-14 48 0 91 -4 94 -10 4 -6 -31 -10 -97 -10 l-103 0 -72 -79 c-57 -62 -73 -86
-73 -110 0 -37 21 -58 63 -66 18 -3 386 -5 818 -3 758 3 788 4 808 22 39 36
28 70 -51 156 l-73 78 -102 1 c-61 1 -103 5 -103 11 0 6 36 10 89 10 68 0 93
4 105 16 14 14 16 65 14 452 l-3 436 -25 13 c-19 10 -173 13 -685 13 -512 0
-666 -3 -685 -13z m1364 -43 c3 -9 6 -197 6 -418 0 -299 -3 -405 -12 -414 -9
-9 -171 -12 -669 -12 -362 0 -664 3 -673 6 -14 5 -16 52 -16 423 0 230 3 421
7 424 3 4 309 7 679 7 603 0 672 -2 678 -16z m-214 -884 c0 -7 -163 -10 -470
-10 -307 0 -470 3 -470 10 0 7 163 10 470 10 307 0 470 -3 470 -10z m294 -122
c108 -118 180 -108 -757 -108 -807 0 -827 1 -827 33 0 5 30 40 67 78 l66 69
693 0 692 0 66 -72z"/>
<path d="M342 1175 l3 -395 648 -3 647 -2 0 398 0 397 -650 0 -650 0 2 -395z
m1268 -5 l0 -360 -615 0 -615 0 0 360 0 360 615 0 615 0 0 -360z"/>
<path d="M605 1426 c-190 -90 -228 -341 -73 -481 63 -57 129 -79 217 -73 144
11 251 113 268 258 l6 49 -139 3 -139 3 0 133 0 132 -45 0 c-26 0 -66 -10 -95
-24z m105 -146 l0 -140 135 0 c154 0 152 2 111 -85 -50 -108 -164 -168 -275
-146 -216 43 -283 310 -114 451 31 25 102 56 136 59 4 1 7 -62 7 -139z"/>
<path d="M790 1335 l0 -115 115 0 115 0 -6 28 c-21 86 -66 145 -139 178 -86
40 -85 41 -85 -91z m152 -14 c15 -25 28 -49 28 -53 0 -5 -33 -8 -72 -6 l-73 3
-3 58 c-5 87 -1 93 50 65 23 -13 54 -42 70 -67z"/>
<path d="M1360 1230 l0 -60 -79 0 -80 0 -3 -52 -3 -53 -80 -5 -80 -5 0 -93 0
-92 258 0 257 0 0 210 0 210 -95 0 -95 0 0 -60z m158 -147 l-3 -178 -60 0 -60
0 -3 178 -2 177 65 0 65 0 -2 -177z m-160 -65 l-3 -113 -60 0 -60 0 -3 113 -3
112 66 0 66 0 -3 -112z m-163 -53 l0 -60 -60 0 -60 0 -3 49 c-5 73 -1 77 65
74 l58 -3 0 -60z"/>
<path d="M330 620 c0 -18 7 -20 80 -20 73 0 80 2 80 20 0 18 -7 20 -80 20 -73
0 -80 -2 -80 -20z"/>
<path d="M670 620 c0 -20 5 -21 88 -18 69 2 87 6 87 18 0 12 -18 16 -87 18
-83 3 -88 2 -88 -18z"/>
<path d="M1150 620 c0 -18 7 -20 85 -20 78 0 85 2 85 20 0 18 -7 20 -85 20
-78 0 -85 -2 -85 -20z"/>
<path d="M1520 620 c0 -18 7 -20 70 -20 63 0 70 2 70 20 0 18 -7 20 -70 20
-63 0 -70 -2 -70 -20z"/>
<path d="M250 520 c0 -20 7 -20 745 -20 738 0 745 0 745 20 0 20 -7 20 -745
20 -738 0 -745 0 -745 -20z"/>
</g>
</svg>
