<?xml version="1.0" standalone="no"?>
<!DOCTYPE svg PUBLIC "-//W3C//DTD SVG 20010904//EN"
 "http://www.w3.org/TR/2001/REC-SVG-20010904/DTD/svg10.dtd">
<svg version="1.0" xmlns="http://www.w3.org/2000/svg"
 width="200.000000pt" height="200.000000pt" viewBox="0 0 200.000000 200.000000"
 preserveAspectRatio="xMidYMid meet">

<g transform="translate(0.000000,200.000000) scale(0.100000,-0.100000)"
fill="#000000" stroke="none">
<path d="M1335 1546 c-33 -13 -108 -40 -167 -60 -99 -35 -130 -57 -96 -68 6
-2 68 15 137 40 69 24 149 51 176 61 51 18 68 45 30 48 -11 0 -47 -9 -80 -21z"/>
<path d="M1256 1423 c-186 -64 -190 -65 -205 -45 -21 26 -53 42 -85 42 -38 0
-85 -45 -92 -89 l-6 -38 -187 -61 c-102 -33 -197 -64 -212 -67 -20 -5 -45 -40
-122 -174 -53 -93 -97 -177 -97 -188 0 -11 8 -27 18 -36 16 -15 46 -17 210
-17 179 0 193 1 212 20 11 11 20 25 20 32 0 7 -41 83 -91 171 -50 87 -89 160
-87 163 3 2 85 31 183 64 154 51 181 58 194 46 9 -7 26 -17 39 -20 l22 -7 0
-315 0 -314 -234 0 c-139 0 -245 -4 -264 -11 -37 -13 -57 -55 -48 -104 13 -68
-3 -66 555 -63 571 3 531 -3 531 88 0 83 -5 85 -271 88 l-229 3 0 319 c0 306
1 320 19 330 11 5 25 26 32 45 13 34 16 36 164 84 82 26 151 45 153 41 1 -4
-32 -67 -74 -140 -67 -115 -76 -136 -68 -159 l9 -26 209 -3 c218 -3 236 1 236
41 0 20 -170 326 -197 352 -8 8 -22 14 -31 14 -9 -1 -102 -31 -206 -66z m268
-74 c30 -53 56 -102 58 -109 2 -9 -29 -12 -122 -12 -92 -1 -124 2 -122 11 7
31 120 216 128 209 1 -2 27 -46 58 -99z m-514 11 c11 -11 20 -29 20 -40 0 -25
-34 -60 -59 -60 -18 0 -61 43 -61 60 0 4 9 19 21 34 24 31 52 33 79 6z m623
-201 c9 -12 17 -25 17 -30 0 -5 -85 -9 -190 -9 -104 0 -190 4 -190 9 0 4 10
19 23 32 22 24 25 24 172 21 138 -2 151 -4 168 -23z m-1079 -156 l65 -113
-140 0 c-77 0 -139 3 -137 8 20 47 134 230 139 224 4 -4 37 -58 73 -119z m100
-175 c8 -12 13 -25 10 -30 -8 -12 -374 -10 -374 3 0 6 5 19 10 30 10 18 23 19
175 19 157 0 165 -1 179 -22z m804 -287 c8 -5 12 -23 10 -47 l-3 -39 -490 -3
c-452 -2 -491 -1 -502 15 -17 23 -16 48 3 67 14 14 72 16 492 16 262 0 483 -4
490 -9z"/>
<path d="M755 1356 c-33 -12 -110 -39 -172 -61 -105 -37 -140 -59 -110 -71 12
-4 352 108 365 120 7 7 -6 36 -15 35 -4 -1 -35 -11 -68 -23z"/>
</g>
</svg>
