<svg version="1.1" id="Layer_1" xmlns="http://www.w3.org/2000/svg" xmlns:xlink="http://www.w3.org/1999/xlink" x="0px" y="0px"
	 width="100%" viewBox="0 0 240 192" enable-background="new 0 0 240 192" xml:space="preserve">
<path fill="#000000" opacity="1.000000" stroke="none" 
	d="
M189.519669,173.536606 
	C186.775208,175.849396 183.906647,176.325485 180.808762,176.322952 
	C142.318970,176.291504 103.829124,176.319534 65.339325,176.290314 
	C57.393444,176.284271 53.726559,172.553192 53.675632,164.688065 
	C53.620754,156.213028 56.883373,152.737701 65.317604,152.697357 
	C82.312706,152.616043 99.310432,152.521088 116.302567,152.756500 
	C120.786270,152.818634 121.999870,151.299011 121.967308,147.013107 
	C121.796402,124.520309 121.890526,102.025604 121.853249,79.531616 
	C121.845413,74.804176 115.554642,69.365791 111.147255,70.757050 
	C97.059868,75.203964 83.082130,79.998222 68.369408,84.888603 
	C74.500206,95.462296 80.328651,105.488449 86.126328,115.532356 
	C87.541214,117.983536 89.018280,120.419296 90.180298,122.991547 
	C92.342384,127.777565 89.538681,133.053162 84.295998,133.147690 
	C68.972366,133.424042 53.638256,133.417282 38.313618,133.177917 
	C32.903957,133.093414 29.741240,127.533432 32.456558,122.602303 
	C39.842861,109.188484 47.663654,96.013550 55.346760,82.763969 
	C56.325985,81.075279 58.046528,80.318016 59.869549,79.890671 
	C75.462952,76.235313 90.260086,70.058777 105.564835,65.493980 
	C108.653839,64.572655 110.249046,62.680710 110.581497,59.459858 
	C111.161392,53.841591 114.641136,50.485088 119.707436,48.675560 
	C124.829422,46.846142 129.313980,48.474983 132.957916,52.109661 
	C135.072952,54.219303 136.897675,55.194458 139.948578,54.102554 
	C153.889618,49.113087 168.202484,45.211185 181.989792,39.755390 
	C185.728027,38.276115 189.039688,39.211697 191.086288,42.687180 
	C198.604904,55.455196 206.173477,68.201683 213.309494,81.183693 
	C216.726517,87.400002 213.940170,92.398712 206.879395,92.575737 
	C192.231705,92.942978 177.561035,92.931183 162.913818,92.544579 
	C155.993454,92.361923 153.370010,87.266754 156.760925,81.001144 
	C162.299622,70.766869 168.292450,60.778351 174.683487,49.660110 
	C162.016586,53.917912 150.284531,57.843075 138.571365,61.823807 
	C137.226929,62.280720 136.684464,63.507320 136.177322,64.824783 
	C135.526947,66.514320 134.930374,68.704567 133.593567,69.564972 
	C128.408218,72.902390 129.020645,77.882706 129.032486,82.871460 
	C129.082748,104.032387 129.199203,125.195152 128.954178,146.353333 
	C128.895279,151.439926 130.466217,152.902618 135.516724,152.790497 
	C150.005569,152.468826 164.506683,152.742218 179.002350,152.663910 
	C183.837082,152.637802 188.966888,152.707184 191.111404,157.677490 
	C193.305771,162.763306 193.648804,168.353333 189.519669,173.536606 
M180.933029,169.643173 
	C185.123138,169.761856 185.823837,167.148392 185.721649,163.719528 
	C185.614105,160.110687 183.415619,159.334579 180.383209,159.335709 
	C142.054489,159.350037 103.725784,159.348770 65.397079,159.333603 
	C63.444477,159.332825 61.592968,159.631973 60.823959,161.627625 
	C60.032871,163.680557 59.854137,165.901306 61.151634,167.860718 
	C62.725475,170.237442 65.281708,169.637787 67.552567,169.639084 
	C105.048073,169.660522 142.543579,169.653122 180.933029,169.643173 
M54.782063,97.210083 
	C51.629097,102.738144 48.476135,108.266205 45.018219,114.328926 
	C56.230221,114.328926 66.217148,114.328926 77.395058,114.328926 
	C71.836456,104.711006 66.810776,96.015167 61.639244,87.066978 
	C58.095554,90.239845 57.119049,93.731392 54.782063,97.210083 
M178.390274,56.839722 
	C175.656754,61.705097 172.923233,66.570473 169.832367,72.071899 
	C180.219818,73.063156 189.723999,71.375824 200.693298,72.699593 
	C195.168381,63.075283 190.809372,54.539619 185.101898,46.433743 
	C182.024689,49.657276 180.737274,53.154747 178.390274,56.839722 
M198.397232,85.849350 
	C201.276642,85.685143 204.250183,86.292274 207.183395,85.239349 
	C206.458145,80.875366 204.314621,79.159569 200.271561,79.214569 
	C189.970108,79.354683 179.664520,79.348412 169.362671,79.225937 
	C165.168732,79.176079 163.525940,81.345314 162.796661,85.847603 
	C174.613922,85.847603 186.021576,85.847603 198.397232,85.849350 
M48.753319,121.924690 
	C45.302982,122.682068 40.174183,119.395111 38.805649,126.125671 
	C53.814968,126.125671 68.504753,126.125671 83.327560,126.125671 
	C82.805435,122.852242 81.538101,121.658554 78.543427,121.731079 
	C68.930687,121.963844 59.310352,121.882721 48.753319,121.924690 
M117.586227,59.197742 
	C116.576714,63.315056 118.249489,66.128304 122.124550,67.319046 
	C124.957893,68.189697 127.431114,66.947639 128.803864,64.305977 
	C130.332169,61.365025 130.348236,58.407131 127.224014,56.423473 
	C123.539124,54.083817 120.295975,54.636105 117.586227,59.197742 
z"/>
<path fill="#000000" opacity="1.000000" stroke="none" 
	d="
M147.783844,46.908035 
	C144.741470,47.958591 142.071732,48.886555 139.398453,49.804268 
	C137.228668,50.549133 135.318253,50.233284 134.433060,47.932919 
	C133.478348,45.451920 135.149429,44.194118 137.171585,43.471840 
	C145.783829,40.395702 154.419037,37.383827 163.049698,34.359383 
	C167.129089,32.929836 171.202438,31.480471 175.306534,30.124882 
	C177.875198,29.276443 181.124817,27.141279 182.627472,30.957644 
	C184.154846,34.836781 180.376007,35.479713 177.811447,36.392269 
	C167.943207,39.903721 158.043152,43.325680 147.783844,46.908035 
z"/>
<path fill="#000000" opacity="1.000000" stroke="none" 
	d="
M81.963165,68.088760 
	C76.265556,70.123634 70.971840,72.131386 65.588646,73.860542 
	C63.296459,74.596832 60.253452,75.665276 59.191441,72.336624 
	C58.145485,69.058304 61.051025,68.249748 63.460476,67.408531 
	C76.028557,63.020641 88.585457,58.600662 101.157333,54.223709 
	C103.577225,53.381210 106.336899,52.489109 107.406006,55.865433 
	C108.383507,58.952469 105.805580,59.736774 103.518066,60.528011 
	C96.446159,62.974163 89.391930,65.471451 81.963165,68.088760 
z"/>
</svg>