<svg version="1.1" id="Layer_1" xmlns="http://www.w3.org/2000/svg" xmlns:xlink="http://www.w3.org/1999/xlink" x="0px" y="0px"
	 width="100%" viewBox="0 0 192 192" enable-background="new 0 0 192 192" xml:space="preserve">
<path fill="#000000" opacity="1.000000" stroke="none" 
	d="
M59.449440,109.368073 
	C65.409561,103.962250 65.482986,98.654373 59.936459,93.553009 
	C59.323318,92.989067 58.708397,92.427055 58.092289,91.866371 
	C52.827560,87.075172 52.483868,82.578041 56.892178,77.159454 
	C58.863655,74.736168 61.515301,75.913727 63.886566,75.734383 
	C67.894745,75.431252 71.907501,76.724846 75.595673,73.198387 
	C78.943626,69.997238 78.008423,66.624474 77.883263,63.080784 
	C77.738113,58.971497 76.945091,55.224773 82.486816,53.016937 
	C87.712288,50.935097 90.652107,51.350662 94.204475,55.884090 
	C100.882591,64.406509 105.488205,64.193794 112.586403,56.122200 
	C117.425652,50.619335 122.103607,50.174244 127.744377,54.886467 
	C130.546082,57.226974 129.329941,60.559975 128.918030,63.322437 
	C128.313507,67.376587 128.478409,70.587784 131.877548,73.623688 
	C134.995697,76.408653 138.317917,75.801254 141.739914,75.726944 
	C149.688858,75.554329 151.497055,77.040451 153.255905,84.716164 
	C154.057297,88.213417 151.291046,89.362015 149.537552,91.161560 
	C146.623856,94.151772 142.673798,96.034584 143.027130,101.549515 
	C143.309570,105.957748 145.838440,108.012161 148.628448,110.356461 
	C154.047134,114.909470 154.455933,120.311584 149.872940,125.625862 
	C148.257767,127.498787 146.272903,126.812103 144.306274,126.691383 
	C139.589127,126.401817 134.822159,125.098602 130.919128,129.654892 
	C128.685181,132.262756 128.356064,134.636810 128.742172,137.828003 
	C130.029449,148.467316 129.769775,146.710022 120.209267,150.855530 
	C117.315125,152.110458 116.090675,149.721558 114.411133,148.180435 
	C111.119324,145.159927 109.153091,140.472900 103.289871,140.812958 
	C99.504929,141.032486 97.185425,142.609833 94.955650,145.327316 
	C89.123741,152.434845 88.964935,152.228363 80.851936,148.439590 
	C77.335793,146.797546 77.890778,144.162659 77.782280,141.367432 
	C77.626793,137.361191 79.211349,133.274826 75.846687,129.490555 
	C72.618141,125.859413 68.843117,126.159325 64.879066,126.489143 
	C61.282475,126.788391 57.561737,128.219452 55.809959,123.145660 
	C52.632103,113.941414 51.667404,116.623566 58.035088,110.575470 
	C58.396820,110.231888 58.795681,109.927399 59.449440,109.368073 
M82.631020,94.254616 
	C80.657928,99.520836 81.197594,104.675018 83.311432,109.763687 
	C87.502014,119.851700 99.061859,125.299927 109.685799,122.188744 
	C119.988960,119.171494 127.089081,108.518806 125.444000,98.545845 
	C123.779922,88.457741 116.231529,80.567123 107.112663,79.383415 
	C96.132202,77.958054 87.361290,83.089088 82.631020,94.254616 
z"/>
<path fill="#000000" opacity="1.000000" stroke="none" 
	d="
M179.984497,121.653839 
	C178.122116,127.977844 175.645660,133.595306 172.750732,139.050568 
	C171.340775,141.707565 170.020798,143.561401 166.688766,141.235321 
	C163.897858,139.287003 161.136795,138.337631 163.609421,133.683563 
	C177.117508,108.258110 175.406189,83.407715 159.200851,59.786186 
	C152.316910,49.751869 142.975601,42.303192 131.643661,37.753407 
	C129.393387,39.060444 130.823486,41.898209 128.203079,43.374180 
	C122.034546,38.798077 115.646698,34.037521 109.061745,27.925444 
	C117.023918,24.118605 124.443741,21.240086 131.873627,18.772896 
	C132.418106,19.476959 132.837250,19.795132 132.785446,19.984495 
	C131.273865,25.511112 134.460236,27.493164 138.905273,29.793850 
	C164.980438,43.289970 179.386963,64.812172 182.461899,94.101662 
	C183.438309,103.402206 181.920700,112.298820 179.984497,121.653839 
z"/>
<path fill="#000000" opacity="1.000000" stroke="none" 
	d="
M31.293358,67.444733 
	C43.090313,43.514370 61.638695,28.626740 87.349113,22.855835 
	C93.121742,21.560123 94.319115,22.891514 94.398010,28.689344 
	C94.447792,32.347408 92.034668,32.603291 89.596878,33.099861 
	C71.593117,36.767166 57.260067,46.263985 46.900501,61.243862 
	C35.696178,77.445251 31.772234,95.414680 36.148075,114.888435 
	C36.323265,115.668091 36.663151,116.410728 37.016430,117.430855 
	C38.916420,117.085350 40.646481,116.770752 43.084816,116.327354 
	C42.655655,124.737541 41.061508,132.546921 39.647408,141.369675 
	C32.018574,136.474030 25.840307,131.259125 19.671944,125.765556 
	C26.166073,120.937988 26.007076,120.957932 24.903309,112.159592 
	C22.980782,96.834717 24.687893,81.963577 31.293358,67.444733 
z"/>
<path fill="#000000" opacity="1.000000" stroke="none" 
	d="
M133.536774,173.739868 
	C102.133423,184.869995 73.998863,180.251633 49.198322,158.091003 
	C47.204994,156.309860 44.344807,154.567215 47.923271,151.366425 
	C50.680019,148.900604 52.413193,146.774414 56.377171,150.462860 
	C77.411552,170.035202 107.564827,174.715027 132.390457,162.728882 
	C133.563736,162.162415 134.671463,161.460205 135.606995,160.935013 
	C136.395142,158.537521 133.925735,157.488708 134.083923,155.597107 
	C136.675919,153.700562 151.954163,151.575073 158.221024,152.438934 
	C156.008377,160.312531 152.164917,167.318130 148.945236,174.443726 
	C148.110901,174.336533 147.585129,174.405960 147.492477,174.237366 
	C143.303223,166.614365 138.506622,171.910248 133.536774,173.739868 
z"/>
</svg>