<?xml version="1.0" standalone="no"?>
<!DOCTYPE svg PUBLIC "-//W3C//DTD SVG 20010904//EN"
 "http://www.w3.org/TR/2001/REC-SVG-20010904/DTD/svg10.dtd">
<svg version="1.0" xmlns="http://www.w3.org/2000/svg"
 width="900.000000pt" height="1058.000000pt" viewBox="0 0 900.000000 1058.000000"
 preserveAspectRatio="xMidYMid meet">

<g transform="translate(0.000000,1058.000000) scale(0.100000,-0.100000)"
fill="#000000" stroke="none">
<path d="M5100 10573 c-457 -33 -966 -137 -1292 -263 -191 -74 -461 -259 -659
-452 -384 -374 -640 -859 -774 -1465 -20 -92 -31 -121 -48 -133 -383 -265
-636 -469 -880 -709 -308 -302 -521 -566 -745 -924 -587 -938 -801 -1879 -662
-2907 72 -528 241 -1026 527 -1547 267 -487 719 -1004 1178 -1347 341 -255
799 -481 1265 -626 215 -67 463 -124 670 -156 162 -25 204 -28 565 -31 353 -4
407 -3 554 16 217 28 687 122 831 167 245 76 592 225 803 345 291 166 736 504
848 645 21 27 39 53 39 57 0 4 -21 17 -47 28 -99 43 -356 149 -363 149 -4 0
-18 -10 -31 -21 -107 -96 -341 -253 -505 -340 -411 -217 -689 -318 -1095 -399
-834 -167 -1697 -75 -2474 264 -490 214 -948 514 -1269 830 -147 145 -184 188
-353 416 -164 222 -216 304 -323 515 -103 203 -164 352 -219 539 -176 596
-214 1246 -110 1876 123 745 387 1322 898 1960 525 656 1300 1150 2126 1354
204 50 344 73 555 91 41 4 134 15 207 26 234 33 488 44 758 30 132 -6 287 -16
345 -21 58 -5 152 -12 210 -16 73 -4 98 -9 83 -15 -37 -14 -342 -38 -608 -49
-815 -32 -1162 -55 -1350 -86 -109 -18 -165 -34 -165 -46 0 -5 78 -47 173 -93
635 -305 1331 -495 2082 -566 166 -16 642 -16 805 -1 269 26 552 86 762 163
117 42 374 164 418 199 l25 19 -180 177 c-459 451 -794 701 -1210 904 -251
122 -483 198 -736 241 -115 20 -169 23 -379 23 -269 0 -354 -10 -579 -65 -217
-53 -525 -179 -719 -292 -40 -24 -98 -45 -169 -62 -438 -105 -705 -213 -1152
-469 -102 -58 -187 -103 -190 -101 -19 20 121 294 222 435 97 137 302 347 431
442 156 116 335 198 433 198 38 0 43 -3 43 -23 0 -13 -13 -43 -29 -68 -38 -59
-173 -193 -241 -238 -296 -199 -524 -359 -528 -372 -4 -11 -3 -11 173 33 231
57 489 149 738 264 258 120 373 200 557 390 125 129 195 226 342 474 234 393
325 510 465 600 41 26 47 42 14 38 -9 -1 -36 -3 -61 -5z"/>
<path d="M3551 8214 c-246 -65 -761 -293 -1051 -465 -157 -93 -404 -281 -590
-450 -108 -98 -319 -347 -463 -547 -155 -215 -332 -538 -436 -795 -116 -285
-192 -569 -240 -887 -62 -420 -59 -911 9 -1222 27 -126 78 -288 90 -288 6 0 8
10 6 23 -65 303 -81 807 -38 1222 25 246 39 327 93 532 164 633 496 1192 1009
1703 293 291 688 567 1040 726 174 79 456 171 715 233 121 30 237 58 258 63
20 5 37 13 37 19 0 14 -112 64 -234 104 -136 44 -143 45 -205 29z"/>
<path d="M6906 7390 c-36 -43 -66 -84 -66 -89 0 -5 64 -66 143 -134 308 -269
568 -566 725 -829 70 -116 222 -424 284 -573 174 -424 268 -913 268 -1405 0
-695 -243 -1489 -633 -2072 -47 -69 -87 -130 -91 -136 -3 -6 16 -18 46 -28 29
-9 116 -43 193 -75 l139 -59 23 22 c43 41 165 238 228 371 196 412 339 929
407 1467 20 159 17 699 -5 860 -83 610 -178 930 -422 1425 -150 303 -310 541
-469 701 -50 49 -138 140 -196 201 -164 174 -462 433 -497 433 -6 0 -41 -36
-77 -80z"/>
<path d="M2518 6956 c-160 -46 -353 -252 -518 -556 -166 -303 -226 -632 -211
-1150 l3 -125 -40 -92 c-225 -507 -267 -1102 -121 -1723 41 -176 132 -450 149
-450 15 0 30 91 55 331 45 443 96 639 184 723 19 19 35 26 40 20 5 -5 21 -38
36 -74 41 -99 243 -491 318 -617 61 -102 67 -117 67 -167 0 -124 54 -303 146
-489 140 -281 362 -581 724 -977 68 -74 141 -154 163 -178 21 -24 42 -41 45
-37 4 4 6 50 6 103 -1 73 -9 129 -34 227 -38 150 -44 242 -18 258 13 9 28 4
70 -23 29 -18 75 -45 101 -59 41 -22 61 -45 135 -156 120 -179 359 -495 551
-729 89 -107 166 -198 171 -201 15 -9 12 46 -11 243 -25 219 -28 432 -6 485
20 46 17 45 249 12 394 -56 412 -58 816 -64 215 -3 392 -3 392 1 0 22 -105 48
-287 73 -371 49 -481 91 -818 315 -304 201 -519 421 -754 770 -226 337 -369
652 -455 1002 -45 184 -56 297 -63 660 l-6 296 57 7 c131 17 271 -14 526 -114
215 -85 277 -107 284 -100 8 7 -74 245 -116 339 -109 246 -242 408 -443 539
-78 51 -330 181 -350 181 -9 0 -17 25 -25 73 -24 148 -85 341 -163 512 -178
395 -477 797 -657 883 -79 38 -130 45 -192 28z"/>
<path d="M7851 4559 c-89 -11 -250 -54 -340 -90 -608 -242 -1075 -941 -1175
-1756 -47 -383 -290 -601 -722 -644 -256 -26 -628 41 -928 167 -44 18 -82 32
-84 29 -2 -2 7 -23 21 -47 98 -165 366 -354 687 -483 262 -106 403 -129 775
-129 244 -1 360 8 502 35 l52 10 120 -71 c277 -164 639 -311 946 -385 244 -59
334 -69 575 -70 200 0 237 3 329 23 125 28 244 71 329 119 60 33 63 36 47 53
-29 32 -113 61 -219 73 l-103 13 -214 142 c-633 419 -848 532 -1157 603 -118
28 -378 36 -522 16 -58 -8 -107 -13 -109 -11 -2 2 11 34 30 70 46 91 134 177
277 270 64 42 133 87 152 100 54 36 163 152 214 228 58 85 135 243 175 357 33
97 75 277 126 551 41 220 76 330 136 430 42 69 200 286 261 356 15 18 28 37
28 42 0 12 -117 11 -209 -1z"/>
</g>
</svg>
