<?xml version="1.0" standalone="no"?>
<!DOCTYPE svg PUBLIC "-//W3C//DTD SVG 20010904//EN"
 "http://www.w3.org/TR/2001/REC-SVG-20010904/DTD/svg10.dtd">
<svg version="1.0" xmlns="http://www.w3.org/2000/svg"
 width="512.000000pt" height="512.000000pt" viewBox="0 0 512.000000 512.000000"
 preserveAspectRatio="xMidYMid meet">

<g transform="translate(0.000000,512.000000) scale(0.100000,-0.100000)"
fill="#ff7200" stroke="none">
<path d="M2348 5109 c-596 -49 -1164 -314 -1594 -743 -1001 -1002 -1001 -2610
0 -3612 1002 -1001 2610 -1001 3612 0 1001 1002 1001 2610 0 3612 -535 534
-1270 805 -2018 743z m474 -324 c771 -90 1427 -556 1760 -1253 363 -756 267
-1681 -244 -2344 -147 -189 -351 -378 -553 -511 -200 -131 -499 -255 -738
-306 -308 -67 -666 -67 -974 0 -239 51 -538 175 -738 306 -637 417 -1015 1119
-1015 1883 0 591 222 1142 630 1564 353 365 826 599 1337 661 149 18 383 18
535 0z"/>
<path d="M1760 2905 l-795 -795 223 -222 222 -223 575 575 575 575 575 -575
575 -575 222 223 223 222 -795 795 c-437 437 -797 795 -800 795 -3 0 -363
-358 -800 -795z"/>
</g>
</svg>
