<?xml version="1.0" standalone="no"?>
<!DOCTYPE svg PUBLIC "-//W3C//DTD SVG 20010904//EN"
 "http://www.w3.org/TR/2001/REC-SVG-20010904/DTD/svg10.dtd">
<svg version="1.0" xmlns="http://www.w3.org/2000/svg"
 width="200.000000pt" height="65.000000pt" viewBox="0 0 200.000000 65.000000"
 preserveAspectRatio="xMidYMid meet">

<g transform="translate(0.000000,65.000000) scale(0.100000,-0.100000)"
fill="#ff7200" stroke="none">
<path d="M257 637 c-41 -10 -91 -54 -100 -87 -4 -16 1 -14 24 11 30 32 54 34
28 3 -13 -16 -12 -16 18 -1 28 15 81 74 72 81 -2 1 -21 -2 -42 -7z"/>
<path d="M305 572 c-11 -2 -51 -15 -88 -30 -131 -50 -212 -157 -211 -277 1
-70 19 -117 64 -169 63 -71 160 -100 258 -76 50 11 117 52 106 63 -3 3 -29 -6
-57 -19 -122 -56 -268 -8 -328 108 -30 58 -26 160 9 223 48 88 133 136 237
134 57 -1 52 -4 -20 -14 l-50 -7 45 -14 c50 -15 167 -18 188 -5 17 10 -47 68
-86 77 -15 3 -31 7 -37 8 -5 1 -19 1 -30 -2z"/>
<path d="M151 472 c-23 -15 -49 -39 -58 -52 -11 -17 -3 -13 23 12 21 20 55 44
74 52 19 8 28 15 19 16 -9 0 -35 -13 -58 -28z"/>
<path d="M453 418 c55 -73 67 -175 28 -246 -7 -13 -11 -28 -8 -35 5 -17 29 30
43 88 7 28 13 42 13 33 1 -22 46 -52 63 -42 7 4 27 7 44 6 l32 -3 0 61 c-1 33
-4 60 -7 61 -74 13 -115 6 -128 -23 -11 -22 -11 -22 -18 -3 -21 61 -41 97 -68
122 -28 27 -28 26 6 -19z m167 -134 c0 -20 -30 -30 -40 -13 -11 17 7 40 26 32
8 -3 14 -12 14 -19z"/>
<path d="M136 411 c-18 -20 -37 -113 -35 -176 1 -22 3 -31 6 -20 10 40 20 35
43 -17 26 -63 50 -93 60 -78 4 7 17 0 32 -19 23 -27 26 -28 31 -11 3 14 11 17
28 13 19 -4 21 -3 9 6 -21 15 73 4 123 -15 20 -8 54 -14 75 -14 l37 0 -41 24
c-22 14 -53 27 -70 30 -16 2 -31 5 -34 5 -3 1 6 10 19 20 25 19 66 121 49 121
-20 0 -67 -59 -78 -98 -8 -32 -17 -43 -35 -47 -14 -3 -36 -7 -50 -10 -21 -5
-30 2 -55 42 -20 31 -30 60 -30 86 0 37 1 39 26 33 23 -6 24 -5 14 14 -6 12
-18 24 -26 27 -8 3 -24 25 -35 48 -24 51 -41 60 -63 36z"/>
<path d="M1694 363 c-9 -26 -25 -68 -35 -93 l-18 -45 -2 60 c-1 33 -2 71 -3
85 -1 15 -8 26 -19 28 -20 4 -35 -27 -18 -38 10 -6 10 -8 -1 -12 -9 -4 -12
-22 -10 -67 l4 -61 50 0 c30 0 55 6 64 14 15 16 57 13 62 -4 4 -11 62 -14 62
-2 -1 4 -16 45 -34 92 -28 73 -37 85 -58 88 -23 3 -28 -3 -44 -45z m56 -65 c0
-5 -7 -8 -15 -8 -17 0 -18 2 -9 25 5 13 8 14 15 3 5 -7 9 -16 9 -20z"/>
<path d="M1847 403 c-4 -3 -7 -46 -7 -95 l0 -88 28 0 c26 0 28 3 24 30 -6 39
13 39 33 0 12 -23 22 -30 46 -30 l30 0 -17 31 c-13 26 -14 36 -4 54 18 34 9
78 -20 92 -26 13 -102 18 -113 6z m88 -63 c0 -8 -10 -16 -22 -18 -18 -3 -23 2
-23 18 0 16 5 21 23 18 12 -2 22 -10 22 -18z"/>
<path d="M696 331 c-39 -43 -3 -128 49 -115 21 5 25 3 25 -15 0 -16 6 -21 25
-21 25 0 25 1 25 84 l0 85 -54 0 c-39 0 -59 -5 -70 -18z m71 -37 c8 -21 -13
-42 -28 -27 -13 13 -5 43 11 43 6 0 13 -7 17 -16z"/>
<path d="M844 337 c-3 -8 -4 -36 -2 -63 l3 -49 45 -2 c25 0 50 -2 55 -3 25 -6
35 2 36 28 0 25 1 26 9 5 11 -26 46 -47 62 -37 7 4 27 7 45 6 l33 -3 0 61 c0
33 -3 60 -7 61 -85 12 -119 6 -129 -24 l-8 -22 -6 25 c-4 18 -13 25 -30 25
-22 0 -25 -5 -28 -43 -4 -54 -25 -52 -32 4 -5 40 -34 60 -46 31z m236 -59 c0
-15 -32 -21 -40 -7 -13 20 9 43 26 28 8 -6 14 -16 14 -21z"/>
<path d="M1147 341 c-2 -3 -1 -42 2 -86 5 -71 8 -80 26 -80 13 0 21 8 23 23 2
15 9 22 20 21 29 -5 61 11 68 34 l7 22 8 -23 c5 -12 20 -27 35 -32 58 -23 114
43 83 98 -23 42 -101 43 -114 1 -7 -20 -7 -20 -29 4 -19 20 -33 25 -75 25 -28
0 -53 -3 -54 -7z m89 -70 c-11 -18 -36 -13 -36 7 0 10 3 22 7 26 10 10 37 -20
29 -33z m141 5 c-4 -9 -11 -16 -17 -16 -17 0 -24 31 -9 41 18 11 34 -5 26 -25z"/>
<path d="M1445 344 c-6 -2 -9 -30 -7 -64 4 -55 6 -60 27 -60 21 0 24 5 27 43
2 23 8 42 13 42 6 0 11 -19 13 -42 3 -38 6 -43 28 -43 23 0 24 3 24 59 0 48
-3 60 -17 64 -22 6 -94 6 -108 1z"/>
</g>
</svg>
