<?xml version="1.0" standalone="no"?>
<!DOCTYPE svg PUBLIC "-//W3C//DTD SVG 20010904//EN"
 "http://www.w3.org/TR/2001/REC-SVG-20010904/DTD/svg10.dtd">
<svg version="1.0" xmlns="http://www.w3.org/2000/svg"
 width="259.000000pt" height="340.000000pt" viewBox="0 0 259.000000 340.000000"
 preserveAspectRatio="xMidYMid meet">

<g transform="translate(0.000000,340.000000) scale(0.100000,-0.100000)"
fill="#050EEB" stroke="none">
<path d="M430 2972 c-19 -9 -43 -33 -55 -52 -20 -35 -20 -47 -20 -1210 0
-1163 0 -1175 20 -1210 43 -74 -8 -70 925 -70 933 0 882 -4 925 70 20 34 20
48 20 935 0 781 -2 904 -15 927 -8 15 -121 124 -250 244 -362 334 -394 362
-424 374 -18 6 -213 10 -559 10 -487 0 -535 -2 -567 -18z m940 -418 c0 -230 2
-258 19 -292 23 -46 46 -67 94 -87 30 -12 87 -15 312 -15 l275 0 0 -777 0
-778 -770 0 -770 0 0 1105 0 1105 420 -3 420 -2 0 -256z m395 -49 c94 -88 172
-163 173 -168 2 -4 -85 -6 -195 -5 l-198 3 -3 190 -2 189 27 -25 c16 -14 105
-97 198 -184z"/>
<path d="M744 1841 c-67 -29 -84 -118 -35 -173 25 -28 36 -33 76 -33 40 0 51
5 76 33 39 44 40 99 2 142 -30 33 -82 46 -119 31z"/>
<path d="M980 1740 l0 -90 465 0 465 0 0 90 0 90 -465 0 -465 0 0 -90z"/>
<path d="M734 1485 c-61 -31 -73 -113 -25 -167 25 -28 36 -33 76 -33 40 0 51
5 76 33 80 89 -20 221 -127 167z"/>
<path d="M980 1390 l0 -90 465 0 465 0 0 90 0 90 -465 0 -465 0 0 -90z"/>
<path d="M744 1141 c-67 -29 -84 -118 -35 -173 25 -28 36 -33 76 -33 40 0 51
5 76 33 39 44 40 99 2 142 -30 33 -82 46 -119 31z"/>
<path d="M980 1040 l0 -90 465 0 465 0 0 90 0 90 -465 0 -465 0 0 -90z"/>
</g>
</svg>
