<?xml version="1.0" standalone="no"?>
<!DOCTYPE svg PUBLIC "-//W3C//DTD SVG 20010904//EN"
 "http://www.w3.org/TR/2001/REC-SVG-20010904/DTD/svg10.dtd">
<svg version="1.0" xmlns="http://www.w3.org/2000/svg"
 width="200.000000pt" height="200.000000pt" viewBox="0 0 200.000000 200.000000"
 preserveAspectRatio="xMidYMid meet">

<g transform="translate(0.000000,200.000000) scale(0.100000,-0.100000)"
fill="#FA0000" stroke="none">
<path d="M272 1557 c-22 -13 -9 -27 359 -371 l382 -357 116 113 c64 63 232
226 374 363 211 203 255 251 240 256 -10 4 -340 8 -733 8 -562 0 -720 -2 -738
-12z"/>
<path d="M1572 1219 l-243 -233 33 -32 c18 -18 128 -121 243 -228 l210 -196 3
230 c1 126 1 334 0 461 l-3 230 -243 -232z"/>
<path d="M208 968 l2 -460 229 221 c126 122 234 227 240 235 9 11 -31 53 -206
217 -120 111 -229 213 -243 225 l-25 23 3 -461z"/>
<path d="M533 667 c-132 -128 -241 -235 -242 -239 -1 -10 1441 -10 1455 0 9 6
-373 376 -466 451 l-30 24 -109 -102 c-70 -65 -117 -101 -131 -101 -14 0 -50
26 -94 68 -39 37 -87 81 -106 99 l-35 32 -242 -232z"/>
</g>
</svg>
