<?xml version="1.0" standalone="no"?>
<!DOCTYPE svg PUBLIC "-//W3C//DTD SVG 20010904//EN"
 "http://www.w3.org/TR/2001/REC-SVG-20010904/DTD/svg10.dtd">
<svg version="1.0" xmlns="http://www.w3.org/2000/svg"
 width="200.000000pt" height="200.000000pt" viewBox="0 0 200.000000 200.000000"
 preserveAspectRatio="xMidYMid meet">

<g transform="translate(0.000000,200.000000) scale(0.100000,-0.100000)"
fill="#0A9400" stroke="none">
<path d="M905 1934 c-162 -27 -326 -97 -445 -193 -325 -260 -428 -704 -251
-1088 l32 -69 -61 -223 c-34 -123 -59 -225 -57 -228 3 -2 108 23 235 56 l230
61 63 -30 c121 -56 207 -73 374 -73 134 0 160 3 240 27 248 75 443 236 555
461 75 148 93 229 93 405 0 171 -18 252 -86 395 -112 230 -333 412 -582 476
-79 20 -274 33 -340 23z m300 -164 c465 -119 701 -634 488 -1066 -45 -90 -125
-190 -207 -256 -221 -178 -547 -210 -806 -80 l-75 38 -135 -37 c-93 -25 -136
-32 -138 -24 -1 6 13 68 32 137 l34 126 -47 94 c-189 378 -39 822 343 1015
102 52 192 72 322 72 80 1 133 -5 189 -19z"/>
<path d="M647 1430 c-14 -11 -38 -45 -52 -75 -24 -47 -27 -64 -23 -128 2 -59
10 -86 36 -138 45 -87 160 -229 246 -301 76 -63 214 -136 310 -163 160 -46
297 26 308 160 l3 40 -105 52 c-58 29 -109 52 -115 52 -5 1 -32 -26 -58 -59
-26 -33 -55 -60 -64 -60 -8 0 -45 14 -82 32 -73 35 -211 164 -245 229 l-19 36
42 52 c22 29 41 56 41 60 0 14 -80 203 -91 217 -18 22 -101 18 -132 -6z"/>
</g>
</svg>
